# xmcd
#
# Track frame offsets:
#	150
#	11792
#	25040
#	40295
#	54770
#	67612
#	77229
#	91045
#	104347
#	114320
#	122327
#	132830
#	146725
#	157720
#
# Disc length: 2265 seconds
#
# Revision: 3
# Processed by: cddbd v1.5.2PL0 Copyright (c) Steve Scherf et al.
# Submitted via: audiograbber 1.83.01
#
DISCID=9d08d70e
DTITLE=Various Artist - Country Roads
DYEAR=1997
DGENRE=Country
TTITLE0=Patsy Cline - Walking After Midnight
TTITLE1=Don Williams - Ruby Tuesday
TTITLE2=Kenny Rogers - For The Good Times
TTITLE3=Loretta Lynn - Coal Miner's Daughter (Live)
TTITLE4=Carl Perkins - Boppin' The Blues
TTITLE5=Merle Haggard - The Legend Of Bonnie And Clyde
TTITLE6=Frankie Laine - Cool Water
TTITLE7=Hoyt Axton - Della And The Dealer
TTITLE8=Jimmie Rodgers - Honeycomb
TTITLE9=Willie Nelson - Things To Remember
TTITLE10=Patsy Cline - Lovesink Blues
TTITLE11=Conway Twitty - Fifteen Years Ago
TTITLE12=Carl Perkins - Dixie Fried
TTITLE13=Kenny Rogers - Reuben James
EXTD=
EXTT0=
EXTT1=
EXTT2=
EXTT3=
EXTT4=
EXTT5=
EXTT6=
EXTT7=
EXTT8=
EXTT9=
EXTT10=
EXTT11=
EXTT12=
EXTT13=
PLAYORDER=
